<svg width="159" height="40" viewBox="0 0 159 40" fill="none" xmlns="http://www.w3.org/2000/svg">
<path d="M29.8364 14.4999C31.8076 16.7789 33 19.7502 33 22.9999C33 30.1796 27.1797 35.9999 20 35.9999C12.8203 35.9999 7 30.1796 7 22.9999C7 19.7502 8.19241 16.7789 10.1636 14.4999" stroke="#101010" stroke-width="5" stroke-linecap="round"/>
<path d="M20 12C22.2091 12 24 10.2091 24 8C24 5.79086 22.2091 4 20 4C17.7909 4 16 5.79086 16 8C16 10.2091 17.7909 12 20 12Z" fill="#101010"/>
<path d="M50.16 28.788C48.928 28.788 47.808 28.54 46.8 28.044C45.792 27.548 44.992 26.804 44.4 25.812C43.808 24.82 43.512 23.556 43.512 22.02V11.7H46.752V22.044C46.752 22.876 46.888 23.58 47.16 24.156C47.432 24.716 47.824 25.132 48.336 25.404C48.864 25.676 49.488 25.812 50.208 25.812C50.944 25.812 51.568 25.676 52.08 25.404C52.608 25.132 53.008 24.716 53.28 24.156C53.552 23.58 53.688 22.876 53.688 22.044V11.7H56.928V22.02C56.928 23.556 56.624 24.82 56.016 25.812C55.408 26.804 54.584 27.548 53.544 28.044C52.52 28.54 51.392 28.788 50.16 28.788ZM60.0857 28.5V11.7H63.3257V28.5H60.0857ZM72.2732 28.5V11.7H77.8892C79.8412 11.7 81.4492 12.052 82.7132 12.756C83.9932 13.444 84.9372 14.42 85.5452 15.684C86.1692 16.932 86.4812 18.404 86.4812 20.1C86.4812 21.796 86.1692 23.276 85.5452 24.54C84.9372 25.788 84.0012 26.764 82.7372 27.468C81.4732 28.156 79.8572 28.5 77.8892 28.5H72.2732ZM75.5132 25.716H77.7212C79.0972 25.716 80.1772 25.492 80.9612 25.044C81.7612 24.596 82.3292 23.956 82.6652 23.124C83.0012 22.276 83.1692 21.268 83.1692 20.1C83.1692 18.916 83.0012 17.908 82.6652 17.076C82.3292 16.228 81.7612 15.58 80.9612 15.132C80.1772 14.684 79.0972 14.46 77.7212 14.46H75.5132V25.716ZM89.2419 28.5V11.7H100.282V14.316H92.4819V18.708H99.5619V21.228H92.4819V25.884H100.282V28.5H89.2419ZM109.018 28.788C107.802 28.788 106.714 28.58 105.754 28.164C104.81 27.748 104.058 27.14 103.498 26.34C102.954 25.54 102.674 24.572 102.658 23.436H106.09C106.106 23.932 106.234 24.38 106.474 24.78C106.714 25.18 107.042 25.5 107.458 25.74C107.89 25.964 108.402 26.076 108.994 26.076C109.506 26.076 109.946 25.996 110.314 25.836C110.698 25.66 110.994 25.42 111.202 25.116C111.41 24.812 111.514 24.452 111.514 24.036C111.514 23.556 111.394 23.156 111.154 22.836C110.93 22.516 110.61 22.244 110.194 22.02C109.794 21.796 109.322 21.596 108.778 21.42C108.25 21.228 107.69 21.028 107.098 20.82C105.77 20.388 104.754 19.812 104.05 19.092C103.362 18.372 103.018 17.42 103.018 16.236C103.018 15.228 103.258 14.364 103.738 13.644C104.234 12.924 104.914 12.372 105.778 11.988C106.642 11.604 107.626 11.412 108.73 11.412C109.866 11.412 110.858 11.612 111.706 12.012C112.57 12.396 113.25 12.956 113.746 13.692C114.258 14.428 114.522 15.292 114.538 16.284H111.082C111.066 15.916 110.954 15.572 110.746 15.252C110.554 14.916 110.282 14.652 109.93 14.46C109.578 14.252 109.162 14.148 108.682 14.148C108.266 14.132 107.882 14.196 107.53 14.34C107.194 14.484 106.922 14.7 106.714 14.988C106.522 15.26 106.426 15.604 106.426 16.02C106.426 16.42 106.522 16.756 106.714 17.028C106.922 17.3 107.202 17.54 107.554 17.748C107.906 17.94 108.322 18.124 108.802 18.3C109.282 18.46 109.802 18.628 110.362 18.804C111.194 19.092 111.962 19.436 112.666 19.836C113.37 20.22 113.93 20.724 114.346 21.348C114.762 21.972 114.97 22.796 114.97 23.82C114.97 24.7 114.738 25.516 114.274 26.268C113.81 27.02 113.138 27.628 112.258 28.092C111.394 28.556 110.314 28.788 109.018 28.788ZM117.719 28.5V11.7H120.959V28.5H117.719ZM131.626 28.788C130.026 28.788 128.634 28.436 127.45 27.732C126.266 27.012 125.346 26.012 124.69 24.732C124.034 23.436 123.706 21.932 123.706 20.22C123.706 18.492 124.042 16.972 124.714 15.66C125.386 14.332 126.354 13.292 127.618 12.54C128.882 11.788 130.394 11.412 132.154 11.412C134.122 11.412 135.754 11.884 137.05 12.828C138.362 13.772 139.21 15.084 139.594 16.764H135.97C135.73 16.028 135.282 15.452 134.626 15.036C133.986 14.604 133.154 14.388 132.13 14.388C131.042 14.388 130.114 14.628 129.346 15.108C128.578 15.588 127.994 16.26 127.594 17.124C127.194 17.988 126.994 19.02 126.994 20.22C126.994 21.436 127.194 22.468 127.594 23.316C127.994 24.164 128.562 24.812 129.298 25.26C130.05 25.692 130.93 25.908 131.938 25.908C133.41 25.908 134.522 25.516 135.274 24.732C136.042 23.932 136.498 22.9 136.642 21.636H132.514V19.212H139.906V28.5H136.906L136.666 26.364C136.314 26.892 135.898 27.34 135.418 27.708C134.954 28.06 134.41 28.324 133.786 28.5C133.162 28.692 132.442 28.788 131.626 28.788ZM142.937 28.5V11.7H146.177L153.905 23.292V11.7H157.145V28.5H153.905L146.177 16.932V28.5H142.937Z" fill="#101010"/>
</svg>
